<svg width="500" height="500" viewBox="0 0 500 500" fill="none" xmlns="http://www.w3.org/2000/svg">
<path d="M417.188 62.5H390.625V46.875C390.625 42.731 388.979 38.7567 386.049 35.8265C383.118 32.8962 379.144 31.25 375 31.25C370.856 31.25 366.882 32.8962 363.951 35.8265C361.021 38.7567 359.375 42.731 359.375 46.875V62.5H265.625V46.875C265.625 42.731 263.979 38.7567 261.049 35.8265C258.118 32.8962 254.144 31.25 250 31.25C245.856 31.25 241.882 32.8962 238.951 35.8265C236.021 38.7567 234.375 42.731 234.375 46.875V62.5H171.875C167.731 62.5 163.757 64.1462 160.826 67.0765C157.896 70.0067 156.25 73.981 156.25 78.125C156.25 82.269 157.896 86.2433 160.826 89.1735C163.757 92.1038 167.731 93.75 171.875 93.75H234.375C234.375 97.894 236.021 101.868 238.951 104.799C241.882 107.729 245.856 109.375 250 109.375C254.144 109.375 258.118 107.729 261.049 104.799C263.979 101.868 265.625 97.894 265.625 93.75H359.375C359.375 97.894 361.021 101.868 363.951 104.799C366.882 107.729 370.856 109.375 375 109.375C379.144 109.375 383.118 107.729 386.049 104.799C388.979 101.868 390.625 97.894 390.625 93.75H417.188C422.575 93.75 427.741 95.8901 431.551 99.6994C435.36 103.509 437.5 108.675 437.5 114.063V328.125C437.5 332.269 439.146 336.243 442.076 339.174C445.007 342.104 448.981 343.75 453.125 343.75C457.269 343.75 461.243 342.104 464.174 339.174C467.104 336.243 468.75 332.269 468.75 328.125V114.063C468.75 100.387 463.318 87.2721 453.648 77.6023C443.978 67.9325 430.863 62.5 417.188 62.5V62.5Z" fill="#1F263D"/>
<path d="M46.875 203.125C51.019 203.125 54.9933 201.479 57.9235 198.549C60.8538 195.618 62.5 191.644 62.5 187.5V114.063C62.5 108.675 64.6401 103.509 68.4494 99.6994C72.2587 95.8901 77.4253 93.75 82.8125 93.75H109.375C109.375 97.894 111.021 101.868 113.951 104.799C116.882 107.729 120.856 109.375 125 109.375C129.144 109.375 133.118 107.729 136.049 104.799C138.979 101.868 140.625 97.894 140.625 93.75V46.875C140.625 42.731 138.979 38.7567 136.049 35.8265C133.118 32.8962 129.144 31.25 125 31.25C120.856 31.25 116.882 32.8962 113.951 35.8265C111.021 38.7567 109.375 42.731 109.375 46.875V62.5H82.8125C69.1373 62.5 56.0222 67.9325 46.3523 77.6023C36.6825 87.2721 31.25 100.387 31.25 114.063V187.5C31.25 191.644 32.8962 195.618 35.8265 198.549C38.7567 201.479 42.731 203.125 46.875 203.125Z" fill="#1F263D"/>
<path d="M453.125 375C448.981 375 445.007 376.646 442.076 379.576C439.146 382.507 437.5 386.481 437.5 390.625V417.188C437.5 422.575 435.36 427.741 431.551 431.551C427.741 435.36 422.575 437.5 417.188 437.5H82.8125C77.4253 437.5 72.2587 435.36 68.4494 431.551C64.6401 427.741 62.5 422.575 62.5 417.188V250C62.5 245.856 60.8538 241.882 57.9235 238.951C54.9933 236.021 51.019 234.375 46.875 234.375C42.731 234.375 38.7567 236.021 35.8265 238.951C32.8962 241.882 31.25 245.856 31.25 250V417.188C31.25 430.863 36.6825 443.978 46.3523 453.648C56.0222 463.318 69.1373 468.75 82.8125 468.75H417.188C430.863 468.75 443.978 463.318 453.648 453.648C463.318 443.978 468.75 430.863 468.75 417.188V390.625C468.75 386.481 467.104 382.507 464.174 379.576C461.243 376.646 457.269 375 453.125 375Z" fill="#1F263D"/>
<path d="M312.5 296.875C312.5 301.019 314.146 304.993 317.076 307.924C320.007 310.854 323.981 312.5 328.125 312.5H390.625C394.769 312.5 398.743 310.854 401.674 307.924C404.604 304.993 406.25 301.019 406.25 296.875V250C406.25 245.856 404.604 241.882 401.674 238.951C398.743 236.021 394.769 234.375 390.625 234.375H328.125C323.981 234.375 320.007 236.021 317.076 238.951C314.146 241.882 312.5 245.856 312.5 250V296.875ZM343.75 265.625H375V281.25H343.75V265.625Z" fill="#1F263D"/>
<path d="M203.125 296.875C203.125 301.019 204.771 304.993 207.701 307.924C210.632 310.854 214.606 312.5 218.75 312.5H281.25C285.394 312.5 289.368 310.854 292.299 307.924C295.229 304.993 296.875 301.019 296.875 296.875V250C296.875 245.856 295.229 241.882 292.299 238.951C289.368 236.021 285.394 234.375 281.25 234.375H218.75C214.606 234.375 210.632 236.021 207.701 238.951C204.771 241.882 203.125 245.856 203.125 250V296.875ZM234.375 265.625H265.625V281.25H234.375V265.625Z" fill="#1F263D"/>
<path d="M187.5 250C187.5 245.856 185.854 241.882 182.924 238.951C179.993 236.021 176.019 234.375 171.875 234.375H109.375C105.231 234.375 101.257 236.021 98.3265 238.951C95.3962 241.882 93.75 245.856 93.75 250V296.875C93.75 301.019 95.3962 304.993 98.3265 307.924C101.257 310.854 105.231 312.5 109.375 312.5H171.875C176.019 312.5 179.993 310.854 182.924 307.924C185.854 304.993 187.5 301.019 187.5 296.875V250ZM156.25 281.25H125V265.625H156.25V281.25Z" fill="#1F263D"/>
<path d="M328.125 218.75H390.625C394.769 218.75 398.743 217.104 401.674 214.174C404.604 211.243 406.25 207.269 406.25 203.125V156.25C406.25 152.106 404.604 148.132 401.674 145.201C398.743 142.271 394.769 140.625 390.625 140.625H328.125C323.981 140.625 320.007 142.271 317.076 145.201C314.146 148.132 312.5 152.106 312.5 156.25V203.125C312.5 207.269 314.146 211.243 317.076 214.174C320.007 217.104 323.981 218.75 328.125 218.75ZM343.75 171.875H375V187.5H343.75V171.875Z" fill="#1F263D"/>
<path d="M218.75 218.75H281.25C285.394 218.75 289.368 217.104 292.299 214.174C295.229 211.243 296.875 207.269 296.875 203.125V156.25C296.875 152.106 295.229 148.132 292.299 145.201C289.368 142.271 285.394 140.625 281.25 140.625H218.75C214.606 140.625 210.632 142.271 207.701 145.201C204.771 148.132 203.125 152.106 203.125 156.25V203.125C203.125 207.269 204.771 211.243 207.701 214.174C210.632 217.104 214.606 218.75 218.75 218.75ZM234.375 171.875H265.625V187.5H234.375V171.875Z" fill="#1F263D"/>
<path d="M187.5 156.25C187.5 152.106 185.854 148.132 182.924 145.201C179.993 142.271 176.019 140.625 171.875 140.625H109.375C105.231 140.625 101.257 142.271 98.3265 145.201C95.3962 148.132 93.75 152.106 93.75 156.25V203.125C93.75 207.269 95.3962 211.243 98.3265 214.174C101.257 217.104 105.231 218.75 109.375 218.75H171.875C176.019 218.75 179.993 217.104 182.924 214.174C185.854 211.243 187.5 207.269 187.5 203.125V156.25ZM156.25 187.5H125V171.875H156.25V187.5Z" fill="#1F263D"/>
<path d="M312.5 390.625C312.5 394.769 314.146 398.743 317.076 401.674C320.007 404.604 323.981 406.25 328.125 406.25H390.625C394.769 406.25 398.743 404.604 401.674 401.674C404.604 398.743 406.25 394.769 406.25 390.625V343.75C406.25 339.606 404.604 335.632 401.674 332.701C398.743 329.771 394.769 328.125 390.625 328.125H328.125C323.981 328.125 320.007 329.771 317.076 332.701C314.146 335.632 312.5 339.606 312.5 343.75V390.625ZM343.75 359.375H375V375H343.75V359.375Z" fill="#1F263D"/>
<path d="M203.125 390.625C203.125 394.769 204.771 398.743 207.701 401.674C210.632 404.604 214.606 406.25 218.75 406.25H281.25C285.394 406.25 289.368 404.604 292.299 401.674C295.229 398.743 296.875 394.769 296.875 390.625V343.75C296.875 339.606 295.229 335.632 292.299 332.701C289.368 329.771 285.394 328.125 281.25 328.125H218.75C214.606 328.125 210.632 329.771 207.701 332.701C204.771 335.632 203.125 339.606 203.125 343.75V390.625ZM234.375 359.375H265.625V375H234.375V359.375Z" fill="#1F263D"/>
<path d="M171.875 328.125H109.375C105.231 328.125 101.257 329.771 98.3265 332.701C95.3962 335.632 93.75 339.606 93.75 343.75V390.625C93.75 394.769 95.3962 398.743 98.3265 401.674C101.257 404.604 105.231 406.25 109.375 406.25H171.875C176.019 406.25 179.993 404.604 182.924 401.674C185.854 398.743 187.5 394.769 187.5 390.625V343.75C187.5 339.606 185.854 335.632 182.924 332.701C179.993 329.771 176.019 328.125 171.875 328.125ZM156.25 375H125V359.375H156.25V375Z" fill="#1F263D"/>
</svg>
