<svg width="500" height="500" viewBox="0 0 500 500" fill="none" xmlns="http://www.w3.org/2000/svg">
<path d="M425.625 73.9584C421.25 58.75 408.125 48.125 392.5 46.6667C331.875 40.8334 273.334 69.1667 239.584 120.417L191.667 192.917C164.375 178.542 138.334 177.708 124.792 178.75C108.334 180 92.7087 184.583 78.3337 192.292C68.9587 197.292 62.917 206.458 61.8753 217.083C60.8337 228.333 65.417 239.375 74.167 246.458L138.334 299.167L170.834 326.042L153.334 347.5C147.917 354.167 148.75 363.958 155.417 369.583C158.334 372.083 161.875 373.125 165.417 373.125C170 373.125 174.375 371.25 177.5 367.5L195 346.042L227.5 372.708L291.667 425.417C297.917 430.625 305.625 433.333 313.334 433.333C316.667 433.333 319.792 432.917 322.917 431.875C333.125 428.75 341.042 420.833 344.167 410.833C348.959 395.208 350.417 378.958 348.542 362.5C346.875 348.958 341.042 323.75 321.667 299.583L383.542 238.542C427.084 195.417 443.542 132.5 426.25 74.1667L425.625 73.9584ZM389.584 77.9167C392.5 78.125 394.792 80.2084 395.625 82.9167C404.792 114.167 401.875 147.083 388.75 175.833C376.875 175.833 352.5 173.75 330.625 155.625C322.709 149.167 304.792 131.458 299.584 102.5C325.417 83.9584 357.084 74.7917 389.375 77.9167H389.584ZM92.7087 219.583C103.334 213.958 114.792 210.625 126.875 209.583C136.667 208.75 154.584 209.375 174.167 218.75L144.375 263.75L93.542 222.083C92.292 221.042 92.5003 219.792 92.7087 219.375V219.583ZM316.875 366.042C318.334 378.125 317.292 390 313.75 401.458C313.542 401.458 312.292 402.083 311.042 401.042L260.209 359.375L298.75 321.458C311.875 338.75 315.834 356.458 316.875 366.042V366.042ZM236.042 339.375H235.834L214.375 321.667L231.875 300.208C237.292 293.542 236.459 283.75 229.792 278.125C223.125 272.5 213.334 273.542 207.709 280.208L190.209 301.667L168.959 284.167H168.75L265.625 137.5C268.125 133.542 271.042 130 274.167 126.458C284.167 154.583 302.292 172.5 311.042 179.583C331.459 196.458 353.125 203.125 370.209 205.625C367.292 209.167 364.375 212.708 361.042 216.042L236.25 339.375H236.042Z" fill="#1F263D"/>
<path d="M123.334 358.75C117.709 353.958 109.375 353.958 103.75 358.75C96.667 364.375 87.0837 374.375 81.8754 389.792C73.7504 414.167 82.7087 435 86.8754 442.708C88.7504 446.25 92.0837 448.958 96.042 450.208C100.209 451.458 107.709 453.333 116.667 453.333C125.625 453.333 137.5 451.458 148.75 445C162.917 437.083 170.834 425.625 175 417.708C178.334 411.25 176.667 403.125 171.042 398.542L123.125 359.167L123.334 358.75ZM133.75 417.5C125.834 421.875 117.709 422.292 111.875 421.458C110.209 416.042 108.75 407.917 111.667 399.375C112.5 396.667 113.75 394.375 115 392.292L140 412.917C138.334 414.583 136.042 416.25 133.75 417.5V417.5Z" fill="#1F263D"/>
</svg>
