<svg width="500" height="500" viewBox="0 0 500 500" fill="none" xmlns="http://www.w3.org/2000/svg">
<path d="M333.333 67.7085H166.667C100.625 67.7085 46.875 121.458 46.875 187.5V312.5C46.875 378.542 100.625 432.292 166.667 432.292H333.333C399.375 432.292 453.125 378.542 453.125 312.5V187.5C453.125 121.458 399.375 67.7085 333.333 67.7085ZM421.875 312.5C421.875 361.25 382.083 401.042 333.333 401.042H166.667C117.917 401.042 78.125 361.25 78.125 312.5V187.5C78.125 138.75 117.917 98.9585 166.667 98.9585H333.333C382.083 98.9585 421.875 138.75 421.875 187.5V312.5Z" fill="#1F263D"/>
<path d="M208.333 276.042H187.5C173.125 276.042 161.458 264.375 161.458 250C161.458 235.625 173.125 223.958 187.5 223.958H208.333C216.875 223.958 223.958 216.875 223.958 208.333C223.958 199.792 216.875 192.708 208.333 192.708H187.5C155.833 192.708 130.208 218.333 130.208 250C130.208 281.667 155.833 307.292 187.5 307.292H208.333C216.875 307.292 223.958 300.208 223.958 291.667C223.958 283.125 216.875 276.042 208.333 276.042Z" fill="#1F263D"/>
<path d="M312.5 192.708H291.667C283.125 192.708 276.042 199.792 276.042 208.333C276.042 216.875 283.125 223.958 291.667 223.958H312.5C326.875 223.958 338.542 235.625 338.542 250C338.542 264.375 326.875 276.042 312.5 276.042H291.667C283.125 276.042 276.042 283.125 276.042 291.667C276.042 300.208 283.125 307.292 291.667 307.292H312.5C344.167 307.292 369.792 281.667 369.792 250C369.792 218.333 344.167 192.708 312.5 192.708Z" fill="#1F263D"/>
<path d="M192.708 250C192.708 258.542 199.791 265.625 208.333 265.625H291.666C300.208 265.625 307.291 258.542 307.291 250C307.291 241.458 300.208 234.375 291.666 234.375H208.333C199.791 234.375 192.708 241.458 192.708 250Z" fill="#1F263D"/>
</svg>
