<svg width="500" height="500" viewBox="0 0 500 500" fill="none" xmlns="http://www.w3.org/2000/svg">
<path d="M375 156.25H312.5C308.356 156.25 304.382 157.896 301.451 160.826C298.521 163.757 296.875 167.731 296.875 171.875C296.875 176.019 298.521 179.993 301.451 182.924C304.382 185.854 308.356 187.5 312.5 187.5H375C391.576 187.5 407.473 194.085 419.194 205.806C430.915 217.527 437.5 233.424 437.5 250C437.5 266.576 430.915 282.473 419.194 294.194C407.473 305.915 391.576 312.5 375 312.5H312.5C308.356 312.5 304.382 314.146 301.451 317.076C298.521 320.007 296.875 323.981 296.875 328.125C296.875 332.269 298.521 336.243 301.451 339.174C304.382 342.104 308.356 343.75 312.5 343.75H375C399.864 343.75 423.71 333.873 441.291 316.291C458.873 298.71 468.75 274.864 468.75 250C468.75 225.136 458.873 201.29 441.291 183.709C423.71 166.127 399.864 156.25 375 156.25Z" fill="#1F263D"/>
<path d="M187.5 312.5H125C108.424 312.5 92.5268 305.915 80.8058 294.194C69.0848 282.473 62.5 266.576 62.5 250C62.5 233.424 69.0848 217.527 80.8058 205.806C92.5268 194.085 108.424 187.5 125 187.5H187.5C191.644 187.5 195.618 185.854 198.549 182.924C201.479 179.993 203.125 176.019 203.125 171.875C203.125 167.731 201.479 163.757 198.549 160.826C195.618 157.896 191.644 156.25 187.5 156.25H125C100.136 156.25 76.2903 166.127 58.7087 183.709C41.1272 201.29 31.25 225.136 31.25 250C31.25 274.864 41.1272 298.71 58.7087 316.291C76.2903 333.873 100.136 343.75 125 343.75H187.5C191.644 343.75 195.618 342.104 198.549 339.174C201.479 336.243 203.125 332.269 203.125 328.125C203.125 323.981 201.479 320.007 198.549 317.076C195.618 314.146 191.644 312.5 187.5 312.5Z" fill="#1F263D"/>
<path d="M156.25 250C156.25 254.144 157.896 258.118 160.826 261.049C163.757 263.979 167.731 265.625 171.875 265.625H328.125C332.269 265.625 336.243 263.979 339.174 261.049C342.104 258.118 343.75 254.144 343.75 250C343.75 245.856 342.104 241.882 339.174 238.951C336.243 236.021 332.269 234.375 328.125 234.375H171.875C167.731 234.375 163.757 236.021 160.826 238.951C157.896 241.882 156.25 245.856 156.25 250Z" fill="#1F263D"/>
</svg>
