<svg width="320" height="297" viewBox="0 0 320 297" fill="none" xmlns="http://www.w3.org/2000/svg">
<path d="M4.71369 9.02882C9.74163 19.7297 97.7306 181.914 99.3018 183.252C100.559 184.589 116.585 154.828 116.585 151.149C116.585 147.805 43.0517 11.3696 37.3953 4.01281C35.5098 1.672 27.0252 0 17.2835 0H0L4.71369 9.02882Z" fill="#E8E8E8"/>
<path d="M66.6199 7.35673C70.3909 15.3824 129.469 124.731 130.726 126.403C131.983 128.075 148.01 96.3074 147.695 92.2946C147.695 90.2882 136.697 68.8865 123.498 45.144L99.3015 1.67192L81.0752 0.668715C62.8489 -0.334488 62.8489 -0.334488 66.6199 7.35673Z" fill="#E8E8E8"/>
<path d="M203.317 41.8C192.005 62.8672 182.577 81.5937 182.577 83.6001C182.577 85.9409 188.548 86.9441 198.918 86.2753L215.573 85.2721L227.2 63.8704C233.485 52.1664 240.399 40.7968 242.284 38.7904C246.683 34.1087 268.052 33.4399 266.795 38.456C266.167 40.4624 257.996 56.5136 248.569 74.5713L231.285 107.008H167.493L140.468 157.837L113.443 208.332L137.326 253.141C150.524 277.887 162.151 296.948 163.094 296.279C163.722 295.276 180.063 266.183 198.918 231.74L232.857 168.872L216.83 167.869C207.717 167.2 199.232 168.204 197.661 169.876C195.776 171.882 187.919 185.592 179.435 200.975C171.264 216.357 163.408 228.73 162.151 228.396C160.894 228.396 157.123 223.714 153.981 218.364L148.639 209L166.551 175.56L184.777 142.12L249.512 138.776L283.765 75.2401C302.934 40.128 318.96 9.69747 319.903 7.35667C321.16 4.34706 310.475 3.34385 272.766 3.34385H224.372L203.317 41.8Z" fill="#E8E8E8"/>
</svg>
