<svg width="500" height="500" viewBox="0 0 500 500" fill="none" xmlns="http://www.w3.org/2000/svg">
<path d="M333.333 46.875H166.667C100.625 46.875 46.875 100.625 46.875 166.667V333.333C46.875 399.375 100.625 453.125 166.667 453.125H333.333C399.375 453.125 453.125 399.375 453.125 333.333V166.667C453.125 100.625 399.375 46.875 333.333 46.875ZM421.875 333.333C421.875 382.083 382.083 421.875 333.333 421.875H166.667C117.917 421.875 78.125 382.083 78.125 333.333V166.667C78.125 117.917 117.917 78.125 166.667 78.125H333.333C382.083 78.125 421.875 117.917 421.875 166.667V333.333Z" fill="#1F263D"/>
<path d="M250 265.625C293.125 265.625 328.125 230.625 328.125 187.5C328.125 144.375 293.125 109.375 250 109.375C206.875 109.375 171.875 144.375 171.875 187.5C171.875 230.625 206.875 265.625 250 265.625ZM250 140.625C275.833 140.625 296.875 161.667 296.875 187.5C296.875 213.333 275.833 234.375 250 234.375C224.167 234.375 203.125 213.333 203.125 187.5C203.125 161.667 224.167 140.625 250 140.625Z" fill="#1F263D"/>
<path d="M385.208 351.666C374.167 307.083 334.167 276.042 288.333 276.042H211.458C165.625 276.042 125.625 307.083 114.583 351.666L109.792 371.25C107.708 379.583 112.708 388.125 121.25 390.208C129.792 392.291 138.125 387.292 140.208 378.75L145 359.167C152.708 328.542 180 307.292 211.458 307.292H288.333C319.792 307.292 347.292 328.75 354.792 359.167L359.583 378.75C361.25 385.833 367.708 390.625 374.792 390.625C376.042 390.625 377.292 390.625 378.542 390.208C386.875 388.125 392.083 379.583 390 371.25L385.208 351.666Z" fill="#1F263D"/>
</svg>
