<svg width="500" height="500" viewBox="0 0 500 500" fill="none" xmlns="http://www.w3.org/2000/svg">
<path d="M250 31.25C206.735 31.25 164.442 44.0795 128.469 68.116C92.4959 92.1526 64.4581 126.317 47.9014 166.288C31.3448 206.259 27.0128 250.243 35.4533 292.676C43.8938 335.109 64.7277 374.087 95.3205 404.68C125.913 435.272 164.891 456.106 207.324 464.547C249.757 472.987 293.741 468.655 333.712 452.099C373.683 435.542 407.848 407.504 431.884 371.531C455.921 335.558 468.75 293.265 468.75 250C468.75 191.984 445.703 136.344 404.68 95.3204C363.656 54.2968 308.016 31.25 250 31.25V31.25ZM250 437.5C212.916 437.5 176.665 426.503 145.831 405.901C114.996 385.298 90.9641 356.014 76.7727 321.753C62.5813 287.492 58.8681 249.792 66.1029 213.421C73.3376 177.049 91.1952 143.64 117.418 117.417C143.64 91.1951 177.049 73.3375 213.421 66.1028C249.792 58.868 287.492 62.5812 321.753 76.7726C356.014 90.964 385.298 114.996 405.901 145.831C426.503 176.665 437.5 212.916 437.5 250C437.5 299.728 417.746 347.419 382.583 382.583C347.42 417.746 299.728 437.5 250 437.5Z" fill="#1F263D"/>
<path d="M312.5 218.75C321.369 218.748 330.056 216.23 337.551 211.489C345.046 206.747 351.042 199.977 354.843 191.963C358.644 183.95 360.093 175.023 359.023 166.218C357.953 157.414 354.407 149.094 348.797 142.225C343.187 135.356 335.743 130.219 327.33 127.411C318.917 124.603 309.88 124.24 301.269 126.363C292.658 128.486 284.826 133.009 278.683 139.405C272.539 145.802 268.336 153.81 266.562 162.5L195.156 205.313C194.057 206.068 193.06 206.96 192.188 207.969C185.867 204.847 178.924 203.192 171.875 203.125C159.443 203.125 147.52 208.064 138.729 216.854C129.939 225.645 125 237.568 125 250C125 262.432 129.939 274.355 138.729 283.146C147.52 291.936 159.443 296.875 171.875 296.875C178.924 296.808 185.867 295.153 192.188 292.031C193.06 293.04 194.057 293.932 195.156 294.688L266.562 337.5C268.694 348.248 274.524 357.909 283.038 364.806C291.553 371.702 302.214 375.398 313.17 375.251C324.126 375.105 334.685 371.124 343.011 364.002C351.338 356.88 356.906 347.065 358.749 336.264C360.592 325.463 358.593 314.358 353.099 304.878C347.605 295.397 338.964 288.141 328.676 284.37C318.388 280.598 307.105 280.55 296.785 284.233C286.466 287.916 277.762 295.098 272.188 304.531L214.219 269.688C217.203 263.554 218.754 256.821 218.754 250C218.754 243.179 217.203 236.446 214.219 230.313L272.188 195.469C276.297 202.524 282.179 208.384 289.249 212.467C296.32 216.551 304.335 218.717 312.5 218.75V218.75ZM312.5 156.25C315.59 156.25 318.611 157.166 321.181 158.883C323.75 160.6 325.753 163.04 326.936 165.896C328.118 168.751 328.428 171.892 327.825 174.923C327.222 177.954 325.734 180.738 323.549 182.924C321.363 185.109 318.579 186.597 315.548 187.2C312.517 187.803 309.376 187.493 306.521 186.311C303.665 185.128 301.225 183.125 299.508 180.556C297.791 177.986 296.875 174.965 296.875 171.875C296.875 167.731 298.521 163.757 301.451 160.826C304.382 157.896 308.356 156.25 312.5 156.25ZM171.875 265.625C168.785 265.625 165.764 264.709 163.194 262.992C160.625 261.275 158.622 258.835 157.439 255.979C156.257 253.124 155.947 249.983 156.55 246.952C157.153 243.921 158.641 241.137 160.826 238.951C163.012 236.766 165.796 235.278 168.827 234.675C171.858 234.072 174.999 234.382 177.854 235.564C180.71 236.747 183.15 238.75 184.867 241.319C186.584 243.889 187.5 246.91 187.5 250C187.5 254.144 185.854 258.118 182.924 261.049C179.993 263.979 176.019 265.625 171.875 265.625ZM312.5 312.5C315.59 312.5 318.611 313.416 321.181 315.133C323.75 316.85 325.753 319.29 326.936 322.146C328.118 325.001 328.428 328.142 327.825 331.173C327.222 334.204 325.734 336.988 323.549 339.174C321.363 341.359 318.579 342.847 315.548 343.45C312.517 344.053 309.376 343.743 306.521 342.561C303.665 341.378 301.225 339.375 299.508 336.806C297.791 334.236 296.875 331.215 296.875 328.125C296.875 323.981 298.521 320.007 301.451 317.076C304.382 314.146 308.356 312.5 312.5 312.5Z" fill="#1F263D"/>
</svg>
