<svg width="24" height="24" viewBox="0 0 24 24" fill="none" xmlns="http://www.w3.org/2000/svg">
<path d="M19 3.25H17C15.48 3.25 14.25 4.48 14.25 6V7.25H11C9.48 7.25 8.25 8.48 8.25 10V12.25H5C3.48 12.25 2.25 13.48 2.25 15V18C2.25 19.52 3.48 20.75 5 20.75H19C20.52 20.75 21.75 19.52 21.75 18V6C21.75 4.48 20.52 3.25 19 3.25ZM3.75 18V15C3.75 14.31 4.31 13.75 5 13.75H8.25V19.25H5C4.31 19.25 3.75 18.69 3.75 18ZM9.75 13V10C9.75 9.31 10.31 8.75 11 8.75H14.25V19.25H9.75V13ZM20.25 18C20.25 18.69 19.69 19.25 19 19.25H15.75V6C15.75 5.31 16.31 4.75 17 4.75H19C19.69 4.75 20.25 5.31 20.25 6V18Z" fill="#1F263D"/>
</svg>
