<svg width="500" height="500" viewBox="0 0 500 500" fill="none" xmlns="http://www.w3.org/2000/svg">
<path d="M250 67.7085C218.333 67.7085 192.708 93.3335 192.708 125V395.833C192.708 427.5 218.333 453.125 250 453.125C281.666 453.125 307.291 427.5 307.291 395.833V125C307.291 93.3335 281.666 67.7085 250 67.7085ZM276.041 395.833C276.041 410.208 264.375 421.875 250 421.875C235.625 421.875 223.958 410.208 223.958 395.833V125C223.958 110.625 235.625 98.9585 250 98.9585C264.375 98.9585 276.041 110.625 276.041 125V395.833Z" fill="#1F263D"/>
<path d="M395.834 171.875C364.167 171.875 338.542 197.5 338.542 229.167V395.833C338.542 427.5 364.167 453.125 395.834 453.125C427.5 453.125 453.125 427.5 453.125 395.833V229.167C453.125 197.5 427.5 171.875 395.834 171.875ZM421.875 395.833C421.875 410.208 410.209 421.875 395.834 421.875C381.459 421.875 369.792 410.208 369.792 395.833V229.167C369.792 214.792 381.459 203.125 395.834 203.125C410.209 203.125 421.875 214.792 421.875 229.167V395.833Z" fill="#1F263D"/>
<path d="M104.167 255.208C72.5 255.208 46.875 280.833 46.875 312.5V395.834C46.875 427.5 72.5 453.125 104.167 453.125C135.833 453.125 161.458 427.5 161.458 395.834V312.5C161.458 280.833 135.833 255.208 104.167 255.208ZM130.208 395.834C130.208 410.209 118.542 421.875 104.167 421.875C89.7917 421.875 78.125 410.209 78.125 395.834V312.5C78.125 298.125 89.7917 286.458 104.167 286.458C118.542 286.458 130.208 298.125 130.208 312.5V395.834Z" fill="#1F263D"/>
</svg>
