<svg width="500" height="500" viewBox="0 0 500 500" fill="none" xmlns="http://www.w3.org/2000/svg">
<path d="M375 109.375H291.667C283.125 109.375 276.042 116.458 276.042 125C276.042 133.542 283.125 140.625 291.667 140.625H317.708V187.5C317.708 196.042 324.792 203.125 333.333 203.125C341.875 203.125 348.958 196.042 348.958 187.5V140.625H375C383.542 140.625 390.625 133.542 390.625 125C390.625 116.458 383.542 109.375 375 109.375Z" fill="#1F263D"/>
<path d="M395.833 46.875H270.833C239.167 46.875 213.542 72.5 213.542 104.167V208.333C213.542 240 239.167 265.625 270.833 265.625H395.833C427.5 265.625 453.125 240 453.125 208.333V104.167C453.125 72.5 427.5 46.875 395.833 46.875ZM421.875 208.333C421.875 222.708 410.208 234.375 395.833 234.375H270.833C256.458 234.375 244.792 222.708 244.792 208.333V104.167C244.792 89.7917 256.458 78.125 270.833 78.125H395.833C410.208 78.125 421.875 89.7917 421.875 104.167V208.333Z" fill="#1F263D"/>
<path d="M125 46.875H104.167C72.5 46.875 46.875 72.5 46.875 104.167V395.833C46.875 427.5 72.5 453.125 104.167 453.125H125C156.667 453.125 182.292 427.5 182.292 395.833V104.167C182.292 72.5 156.667 46.875 125 46.875ZM151.042 395.833C151.042 410.208 139.375 421.875 125 421.875H104.167C89.7917 421.875 78.125 410.208 78.125 395.833V104.167C78.125 89.7917 89.7917 78.125 104.167 78.125H125C139.375 78.125 151.042 89.7917 151.042 104.167V395.833Z" fill="#1F263D"/>
<path d="M395.833 296.875H270.833C239.167 296.875 213.542 322.5 213.542 354.167V395.833C213.542 427.5 239.167 453.125 270.833 453.125H395.833C427.5 453.125 453.125 427.5 453.125 395.833V354.167C453.125 322.5 427.5 296.875 395.833 296.875ZM421.875 395.833C421.875 410.208 410.208 421.875 395.833 421.875H270.833C256.458 421.875 244.792 410.208 244.792 395.833V354.167C244.792 339.792 256.458 328.125 270.833 328.125H395.833C410.208 328.125 421.875 339.792 421.875 354.167V395.833Z" fill="#1F263D"/>
</svg>
